PathFileType	4	(X/Y/Z)	c:/Users/goper/Files/vsCode/490R/osim_files/C15/C15_Static02.trc
DataRate	CameraRate	NumFrames	NumMarkers	Units                	OrigDataRate	OrigDataStartFrame	OrigNumFrames
250.00	250.00	9	36	mm	250.0	1	1020
                Frame#	Time	LPSIS			LASIS			LTH1			LTH2			LTH3			LTH4			LLFE			LMFE			LSH1			LSH2			LSH3			LSH4			LLMAL			LMMAL			LCAL			LMTP5			LTOE			LMTP1			RPSIS			RASIS			RTH1			RTH2			RTH3			RTH4			RLFE			RMFE			RSH1			RSH2			RSH3			RSH4			RLMAL			RMMAL			RCAL			RMTP1			RTOE			RMTP5		
		X1	Y1	Z1	X2	Y2	Z2	X3	Y3	Z3	X4	Y4	Z4	X5	Y5	Z5	X6	Y6	Z6	X7	Y7	Z7	X8	Y8	Z8	X9	Y9	Z9	X10	Y10	Z10	X11	Y11	Z11	X12	Y12	Z12	X13	Y13	Z13	X14	Y14	Z14	X15	Y15	Z15	X16	Y16	Z16	X17	Y17	Z17	X18	Y18	Z18	X19	Y19	Z19	X20	Y20	Z20	X21	Y21	Z21	X22	Y22	Z22	X23	Y23	Z23	X24	Y24	Z24	X25	Y25	Z25	X26	Y26	Z26	X27	Y27	Z27	X28	Y28	Z28	X29	Y29	Z29	X30	Y30	Z30	X31	Y31	Z31	X32	Y32	Z32	X33	Y33	Z33	X34	Y34	Z34	X35	Y35	Z35	X36	Y36	Z36

1	0.00000	-440.48337	1028.68274	406.04440	-278.49661	1010.28613	331.46692	-364.54703	635.34113	252.20911	-367.11127	588.64105	264.49283	-312.47736	639.45282	253.24664	-313.73352	594.12128	259.69653	-347.59866	501.41064	277.71384	-339.66214	477.29425	396.19794	-415.86572	395.86594	260.59531	-418.58987	353.46869	251.32651	-354.11795	389.31122	256.53198	-364.26318	346.17133	247.62624	-403.33069	84.75272	288.38937	-383.10599	103.92542	379.01614	-464.02423	57.85111	331.60464	-280.86322	36.09816	263.31876	-224.75256	59.38378	326.31711	-260.43729	39.18555	381.44379	-431.35468	1029.55237	525.83685	-273.24933	1006.61481	582.53821	-342.41992	642.65454	653.89136	-342.19217	595.93170	648.55121	-282.94870	638.19476	640.55627	-290.91739	592.02783	639.98932	-337.30951	498.03885	625.86475	-354.18411	474.30438	509.92261	-425.78394	399.15646	650.89172	-427.43018	356.01126	657.86243	-364.40448	388.53918	652.57703	-375.78391	348.37482	660.41180	-416.77344	84.13716	617.13721	-387.80524	102.88863	529.47119	-477.18680	58.15569	572.63202	-273.54001	37.92014	534.97992	-239.31549	56.01240	588.35889	-299.43488	31.05426	653.91687
2	0.00400	-440.54306	1028.69214	406.03775	-278.51419	1010.30389	331.48093	-364.56085	635.37695	252.19659	-367.07742	588.67590	264.48120	-312.48575	639.45532	253.25696	-313.73535	594.14282	259.71585	-347.60202	501.44250	277.72470	-339.71066	477.26300	396.19647	-415.79193	395.92633	260.55704	-418.62646	353.47507	251.33688	-354.14404	389.32086	256.54932	-364.27090	346.17725	247.65015	-403.37061	84.77692	288.38773	-383.12106	103.97060	379.01382	-464.06357	57.93051	331.58694	-280.89969	36.12982	263.31104	-224.76395	59.38489	326.30746	-260.47180	39.21010	381.43542	-431.37650	1029.57861	525.83508	-273.27139	1006.60919	582.56738	-342.40189	642.75775	653.85120	-342.39078	595.69788	648.52911	-282.96121	638.20782	640.54956	-290.94016	592.03918	639.97449	-337.30743	498.07217	625.89349	-354.18723	474.33459	509.90991	-425.82303	399.17792	650.87781	-427.48950	356.01642	657.83612	-364.40631	388.56418	652.57977	-375.83200	348.37524	660.41125	-416.34531	84.38718	617.49109	-387.81329	102.91752	529.47333	-477.26028	58.20432	572.57745	-273.62701	37.80804	534.87897	-239.37601	56.00208	588.36053	-299.44510	31.08879	653.89124
3	0.00800	-440.53845	1028.69836	406.04245	-278.54785	1010.30450	331.51642	-364.52090	635.42255	252.18361	-367.02078	588.71442	264.45673	-312.49194	639.46808	253.27982	-313.72845	594.15387	259.74677	-347.58597	501.49216	277.71442	-339.73203	477.26804	396.21484	-415.76495	395.96643	260.55554	-418.66269	353.48691	251.36513	-354.11240	389.33725	256.54599	-364.28415	346.18005	247.68048	-403.36340	84.80756	288.37961	-383.14755	104.00282	379.00909	-464.05969	57.99430	331.57297	-281.00995	35.95304	263.45038	-224.79550	59.40561	326.30862	-260.45029	39.23492	381.43668	-431.39224	1029.60095	525.83759	-273.26016	1006.64484	582.59436	-342.42871	642.73254	653.90912	-342.32980	595.72144	648.53455	-282.97223	638.23669	640.55585	-290.97214	592.03937	639.97784	-337.32541	498.10782	625.88477	-354.19150	474.35620	509.91238	-425.85010	399.21271	650.87573	-427.49222	356.02017	657.84961	-364.43704	388.58527	652.62164	-375.86179	348.39255	660.43378	-416.38684	84.41148	617.48236	-387.79593	102.93351	529.48657	-477.28159	58.25077	572.55817	-273.54333	37.97238	534.95819	-239.34787	56.03573	588.36230	-299.45471	31.12210	653.90338
4	0.01200	-440.56335	1028.72107	406.05597	-278.50397	1010.32361	331.50931	-364.53476	635.42914	252.18684	-367.06378	588.69318	264.51791	-312.47946	639.48547	253.28583	-313.74701	594.15582	259.74249	-347.58881	501.50940	277.73767	-339.74005	477.25491	396.21432	-415.72827	396.01117	260.53720	-418.63974	353.47980	251.36520	-354.13379	389.34280	256.55228	-364.28827	346.19016	247.66823	-403.37164	84.81868	288.38654	-383.10840	104.01276	378.99625	-464.00424	57.96972	331.55579	-280.97662	35.96544	263.43802	-224.77644	59.41156	326.29202	-260.45084	39.27626	381.41861	-431.36121	1029.62939	525.85449	-273.23203	1006.66632	582.58636	-342.50165	642.81305	653.82239	-342.16464	595.92596	648.50391	-282.95151	638.24835	640.57227	-290.94385	592.05554	639.98218	-337.29620	498.12894	625.90955	-354.20493	474.38806	509.91965	-425.83829	399.21329	650.88245	-427.47632	356.01843	657.84930	-364.42529	388.59964	652.59106	-375.82779	348.41333	660.41846	-416.37717	84.44076	617.47888	-387.77670	102.96635	529.47314	-477.27267	58.27272	572.56195	-273.54239	37.99628	534.95062	-239.35609	56.04917	588.35175	-299.41769	31.12462	653.88544
5	0.01600	-440.53381	1028.73486	406.09805	-278.53323	1010.32428	331.55646	-364.49954	635.43005	252.18732	-367.01682	588.70209	264.49191	-312.47659	639.48047	253.29764	-313.73285	594.15009	259.76810	-347.56299	501.52570	277.73019	-339.71921	477.26932	396.24194	-415.69382	396.02499	260.54858	-418.63748	353.49408	251.39090	-354.12579	389.32187	256.57208	-364.29370	346.18280	247.68681	-403.37091	84.85307	288.38718	-383.12216	104.01447	379.00482	-464.01370	57.99250	331.56174	-280.97198	35.98631	263.44019	-224.78702	59.40113	326.30353	-260.44379	39.26957	381.43710	-431.30099	1029.64795	525.87708	-273.22617	1006.65887	582.63739	-342.38223	642.74042	653.93457	-342.14261	595.95001	648.54773	-282.93909	638.23492	640.59393	-290.93985	592.04785	640.00574	-337.31799	498.11160	625.93823	-354.19067	474.41187	509.92139	-425.84891	399.20282	650.91296	-427.46576	356.00159	657.87024	-364.41534	388.58817	652.62494	-375.84479	348.38980	660.46088	-416.32449	84.42846	617.50201	-387.78790	102.96580	529.47528	-477.21622	58.24364	572.59998	-273.55515	37.94305	534.97308	-239.35803	56.03711	588.36768	-299.42548	31.14120	653.90735
6	0.02000	-440.55106	1028.74548	406.15344	-278.54443	1010.32074	331.56686	-364.48462	635.42035	252.22324	-367.07602	588.62537	264.53802	-312.47028	639.47089	253.29637	-313.74033	594.11493	259.77655	-347.55237	501.52930	277.75330	-339.71524	477.27975	396.25333	-415.65503	396.01093	260.55292	-418.62305	353.49667	251.39909	-354.14059	389.29019	256.58591	-364.29327	346.17957	247.70720	-403.34485	84.84411	288.39282	-383.11618	103.98911	379.04987	-463.98328	57.98577	331.59476	-280.86505	36.14896	263.33270	-224.78226	59.37457	326.32898	-260.44016	39.23362	381.45361	-431.35736	1029.65125	525.91412	-273.26617	1006.60614	582.68170	-342.36932	642.72388	653.98352	-342.18832	596.06384	648.55328	-282.98395	638.18103	640.63586	-290.94098	592.01379	640.05219	-337.32739	498.05957	626.01410	-354.19629	474.42896	509.96613	-425.83463	399.19650	650.96112	-427.43170	355.97342	657.92047	-364.48557	388.51611	652.65851	-375.84421	348.37219	660.49347	-416.72058	84.24568	617.19672	-387.75818	102.97334	529.48254	-477.16833	58.19513	572.66461	-273.58026	37.90586	534.99988	-239.36594	55.98032	588.38708	-299.40396	31.12850	653.93250
7	0.02400	-440.54654	1028.73779	406.20041	-278.55307	1010.31763	331.56516	-364.46976	635.42371	252.25020	-367.08899	588.62170	264.56891	-312.47360	639.47052	253.30612	-313.70087	594.12061	259.65369	-347.55426	501.52338	277.76004	-339.72632	477.27936	396.28720	-415.66644	395.99203	260.57440	-418.63162	353.49554	251.41809	-354.12491	389.29095	256.58017	-364.26587	346.19708	247.69411	-403.32733	84.85431	288.38641	-383.15268	103.97707	379.06998	-463.95248	57.93813	331.58984	-280.94598	35.98876	263.44998	-224.77899	59.36198	326.34872	-260.46838	39.20871	381.46927	-431.36102	1029.67297	525.93823	-273.25803	1006.60608	582.69562	-342.39700	642.70874	654.00732	-342.16791	596.04205	648.60297	-283.00244	638.14612	640.65454	-290.97745	591.97827	640.09204	-337.42145	498.01822	626.00574	-354.17023	474.43390	509.96085	-425.80588	399.18973	650.98206	-427.44186	355.94083	657.96143	-364.50043	388.51544	652.68604	-375.87064	348.33719	660.51447	-416.72958	84.22456	617.24286	-387.73840	102.98236	529.49048	-477.17587	58.17121	572.73071	-273.60843	37.86586	535.01196	-239.40755	55.92555	588.42426	-299.43683	31.10483	653.96960
8	0.02800	-440.52719	1028.74780	406.24008	-278.55835	1010.29834	331.57651	-364.44720	635.38965	252.26677	-367.10089	588.57990	264.60468	-312.46124	639.46198	253.30728	-313.73749	594.12073	259.78641	-347.55380	501.50208	277.78146	-339.75433	477.28867	396.27753	-415.66229	395.96997	260.59869	-418.60709	353.47662	251.42587	-354.10519	389.26361	256.59378	-364.27859	346.19070	247.69566	-403.30249	84.83269	288.38324	-383.16971	103.92568	379.11511	-463.94577	57.90730	331.61609	-280.95941	35.99875	263.45303	-224.79219	59.33863	326.35522	-260.49301	39.18100	381.49597	-431.33456	1029.65637	525.96313	-273.33109	1006.55127	582.75134	-342.39987	642.70654	654.06720	-342.20358	596.01880	648.66931	-283.06610	638.08240	640.70367	-291.01523	591.93719	640.11414	-337.46515	497.97830	626.03436	-354.18588	474.45920	509.97968	-425.84692	399.16714	651.04456	-427.42926	355.90735	658.00104	-364.58643	388.41656	652.72681	-375.92096	348.30051	660.56110	-416.79675	84.18280	617.27777	-387.74640	102.97437	529.48883	-477.16003	58.16634	572.75732	-273.67130	37.74336	535.06940	-239.43837	55.88853	588.45679	-299.44962	31.06095	654.00659
9	0.03200	-440.54855	1028.73523	406.26874	-278.55884	1010.31256	331.57745	-364.46817	635.34503	252.27129	-367.11230	588.53015	264.59692	-312.46988	639.46698	253.30771	-313.69849	594.08014	259.66876	-347.52921	501.49786	277.79266	-339.76746	477.31586	396.30624	-415.68326	395.94733	260.64185	-418.61383	353.47510	251.41449	-354.13779	389.25464	256.58182	-364.27194	346.20322	247.69455	-403.31500	84.83234	288.37976	-383.18378	103.92789	379.12674	-463.95374	57.88326	331.59207	-280.95590	35.99131	263.46558	-224.79227	59.32742	326.36810	-260.49515	39.15633	381.51074	-431.32349	1029.65747	526.00128	-273.35532	1006.50873	582.76782	-342.43619	642.69214	654.08002	-342.22000	596.01501	648.68097	-283.07846	638.09149	640.72980	-291.03726	591.93884	640.11707	-337.50974	497.95450	626.03815	-354.16403	474.45850	509.99332	-425.85922	399.17844	651.06427	-427.42917	355.90463	658.04218	-364.62576	388.40759	652.75964	-375.93799	348.28729	660.56635	-416.82028	84.19126	617.32129	-387.75555	102.96107	529.47595	-477.17065	58.15138	572.77673	-273.89560	37.48299	535.03864	-239.45595	55.86729	588.45325	-299.47614	31.04673	654.01685
